HIERARCHY
ROOT pelvis
{
  OFFSET 0 100 0
  CHANNELS 6 Xposition Yposition Zposition Zrotation Xrotation Yrotation
  JOINT pelvis_right_femur
  {
    OFFSET -10.78128 -3.44521 -0.5502486
    CHANNELS 3 Zrotation Xrotation Yrotation
    JOINT right_femur_tibia
    {
      OFFSET -0.8047443 -44.0398 -0.1307829
      CHANNELS 3 Zrotation Xrotation Yrotation
      JOINT right_tibia_foot
      {
        OFFSET 3.006224 -47.83518 -5
        CHANNELS 3 Zrotation Xrotation Yrotation
        End Site
        {
          OFFSET 0 -5 15
        }
      }
    }
  }
  JOINT pelvis_left_femur
  {
    OFFSET 10.78128 -3.44521 -0.5502486
    CHANNELS 3 Zrotation Xrotation Yrotation
    JOINT left_femur_tibia
    {
      OFFSET 0.8047443 -44.0398 -0.1307829
      CHANNELS 3 Zrotation Xrotation Yrotation
      JOINT left_tibia_foot
      {
        OFFSET -4.370144 -48.10324 -4.275266
        CHANNELS 3 Zrotation Xrotation Yrotation
        End Site
        {
          OFFSET 0 -5 15
        }
      }
    }
  }
  JOINT pelvis_spine1
  {
    OFFSET 0 6.468898 -3.129235
    CHANNELS 3 Zrotation Xrotation Yrotation
    JOINT spine1
    {
      OFFSET 0 23.15396 4.99043
      CHANNELS 3 Zrotation Xrotation Yrotation
      JOINT spine2
      {
        OFFSET 0 20.79997 -5.064912
        CHANNELS 3 Zrotation Xrotation Yrotation
        JOINT neck
        {
          OFFSET 0 14.38658 9.616178
          CHANNELS 3 Zrotation Xrotation Yrotation
          End Site
          {
            OFFSET 0 20 0
          }
        }
      }
      JOINT right_manubrium
      {
        OFFSET -5.722621 16.35077 3.967754
        CHANNELS 3 Zrotation Xrotation Yrotation
        JOINT right_clavicle
        {
          OFFSET -13.16364 1.694482 -4.693211
          CHANNELS 3 Zrotation Xrotation Yrotation
          JOINT right_humerus
          {
            OFFSET -28.5034 -0.3100689 -2.792744
            CHANNELS 3 Zrotation Xrotation Yrotation
            JOINT right_radius
            {
              OFFSET -25.15693 0.02248979 -1.271978
              CHANNELS 3 Zrotation Xrotation Yrotation
              End Site
              {
                OFFSET -15 0 0
              }
            }
          }
        }
      }
      JOINT left_manubrium
      {
        OFFSET 5.722621 16.35077 3.967754
        CHANNELS 3 Zrotation Xrotation Yrotation
        JOINT left_clavicle
        {
          OFFSET 13.16364 1.694482 -4.693211
          CHANNELS 3 Zrotation Xrotation Yrotation
          JOINT left_humerus
          {
            OFFSET 29.39168 -1.063119 -2.237045
            CHANNELS 3 Zrotation Xrotation Yrotation
            JOINT left_radius
            {
              OFFSET 24.59957 -0.9528479 0.9047498
              CHANNELS 3 Zrotation Xrotation Yrotation
              End Site
              {
                OFFSET 15 -0 -0
              }
            }
          }
        }
      }
    }
  }
}
MOTION
Frames: 21
Frame Time: 0.0416666666667
0 103.5113 0 0.8053649 0.0284065 -0.01844417 4.376252 -16.93312 11.79493 -0 39.26791 -0 -5.406392 -18.14871 -3.687976 -7.125632 9.586314 -23.80013 -0 4.854573 -0 10.32581 -15.84506 28.50029 -3.350603 -4.07882 5.441446 2.112216 9.217744 -7.301534 1.679549 21.92395 6.498838 2.735152 -25.15044 9.963905 6.481788 -20.36237 11.07019 85.5785 36.66662 -18.66435 -0 0 17.59265 -5.225029 8.63296 3.216228 5.873059 -19.0147 -1.091015 -95.52915 27.0361 24.09814 0 0 -14.80995 9.593485 17.93734 4.434583
0.2976898 103.4434 1.36646 0.6354889 0.1924149 -0.01131676 4.566579 -17.62322 11.64646 -0 38.70598 -0 -5.505803 -17.67034 -3.700283 -6.965496 9.874109 -23.58444 -0 4.907663 -0 9.577515 -16.43904 27.99219 -3.232001 -4.013925 5.345954 2.136694 9.137769 -7.384317 1.672087 21.84725 6.583442 2.776347 -25.22852 10.01152 6.398731 -20.23703 11.01527 85.69448 36.42836 -18.93058 -0 0 17.49266 -5.37531 8.743765 3.17045 5.991417 -19.21806 -0.9908888 -95.61097 27.33503 24.10589 0 0 -15.0301 9.135545 18.15348 4.952241
0.5220709 103.2903 3.771966 -0.8202267 2.077499 0.3392554 6.925405 -26.23939 10.6477 -0 31.24821 -0 -6.389244 -11.51546 -3.267266 -5.999357 12.75881 -21.47254 -0 6.210274 -0 5.642514 -19.77756 24.19214 -2.029242 -2.726869 4.650603 2.216003 8.976086 -7.677442 2.031888 21.16423 7.07284 3.15154 -26.11951 10.72465 5.440328 -19.23332 10.44967 87.73937 36.19602 -21.44382 -0 0 14.82686 -5.73516 9.471567 2.9782 6.497803 -20.72787 -1.381327 -94.57274 29.85896 22.83451 0 0 -20.48133 7.429387 17.71589 8.120609
0.7227858 103.0996 6.530183 -1.375719 2.657965 0.7755647 7.907268 -28.9585 10.48507 -0 29.3286 -0 -6.773204 -9.569767 -3.049578 -5.674041 13.70427 -21.01168 -0 7.222269 -0 3.959379 -20.39748 22.66483 -1.423024 -2.134149 4.352035 2.087481 8.859987 -7.583633 2.169323 21.05039 7.301609 3.341366 -26.17661 11.00012 5.289698 -18.78773 10.21857 88.46108 36.64734 -22.16807 -0 0 13.87515 -5.576589 9.874219 2.904147 6.464173 -21.00007 -1.772584 -94.60667 31.38734 22.87438 0 0 -22.47313 6.226824 17.5435 10.23993
0.9273809 102.9244 9.730201 -1.922952 3.410553 1.284582 8.841687 -31.52037 10.15768 -0 26.80556 -0 -7.034028 -7.850297 -2.690484 -5.371977 14.4115 -20.31518 -0 8.751597 -0 2.707005 -20.65607 20.98121 -0.9643132 -1.660297 4.017458 2.208288 8.769461 -7.636983 2.177935 20.77228 7.534551 3.487095 -26.39611 11.17333 5.261999 -18.29352 10.16699 88.841 37.0495 -22.63187 -0 0 12.95649 -5.633333 10.28392 3.147259 6.527988 -21.23786 -1.829737 -94.11645 31.53765 22.32533 0 0 -23.80677 6.068148 16.94161 10.69894
1.154827 102.7626 13.27086 -2.326228 3.941279 1.810981 9.463254 -33.07679 9.823889 -0 25.05215 -0 -7.203055 -6.762586 -2.358372 -5.158803 14.79987 -19.78157 -0 10.26548 -0 1.669631 -20.596 19.55567 -0.6226475 -1.334319 3.755765 2.315004 8.6851 -7.673683 2.118546 20.56493 7.741366 3.608438 -26.50716 11.24283 5.335297 -17.88745 10.17874 88.99693 37.40384 -22.85865 -0 0 12.33617 -5.734363 10.62869 3.425087 6.559922 -21.35394 -1.827695 -93.76085 31.43625 21.92942 0 0 -24.53683 5.981349 16.43671 10.90541
1.419867 102.6322 17.15728 -2.679556 4.413466 2.344033 9.93217 -34.18829 9.395692 -0 23.36637 -0 -7.336038 -5.895589 -1.996023 -4.976964 15.03851 -19.17923 -0 12.09222 -0 0.6886674 -20.30265 18.08238 -0.336059 -1.088466 3.514364 2.46229 8.617058 -7.739558 1.998332 20.34282 7.937128 3.715233 -26.60005 11.22922 5.454846 -17.48764 10.23963 89.02893 37.68214 -22.99174 -0 0 11.79792 -5.930118 10.94912 3.778334 6.594846 -21.44165 -1.758392 -93.32855 30.96758 21.44931 0 0 -24.95437 6.094389 15.85526 10.71023
1.733915 102.5425 21.3707 -2.962906 4.78199 2.862072 10.22484 -34.80989 8.883055 -0 21.89146 -0 -7.441801 -5.244252 -1.619335 -4.837244 15.11581 -18.55457 -0 14.14802 -0 -0.2317235 -19.8028 16.6427 -0.09662825 -0.9139422 3.31387 2.606597 8.57232 -7.810193 1.832446 20.13705 8.120232 3.819048 -26.64095 11.13736 5.607015 -17.11622 10.3336 88.97797 37.90183 -23.05299 -0 0 11.35738 -6.1985 11.23121 4.159705 6.621691 -21.50804 -1.675317 -92.89034 30.29597 20.96919 0 0 -25.14297 6.296371 15.25824 10.29793
2.106361 102.5089 25.91025 -3.180125 5.056465 3.348918 10.35543 -34.98831 8.252829 -0 20.52425 -0 -7.53729 -4.729835 -1.212371 -4.733812 15.0345 -17.85401 -0 16.56083 -0 -1.113355 -19.08417 15.18881 0.108388 -0.7999548 3.15319 2.746733 8.56318 -7.89007 1.618167 19.9375 8.29329 3.929517 -26.62826 10.95712 5.780431 -16.76226 10.4611 88.86909 38.0562 -23.07264 -0 0 10.9805 -6.561502 11.47492 4.570028 6.645283 -21.57845 -1.595282 -92.41061 29.39269 20.45144 0 0 -25.16473 6.608257 14.61114 9.637021
2.543268 102.5477 30.77175 -3.317403 5.211356 3.785287 10.31532 -34.6903 7.491378 -0 19.27975 -0 -7.636249 -4.323008 -0.7762289 -4.667246 14.76976 -17.06386 -0 19.37702 -0 -1.952851 -18.14787 13.74244 0.2830246 -0.7441938 3.044145 2.865407 8.602009 -7.975005 1.35793 19.75402 8.453966 4.054901 -26.54577 10.67962 5.958304 -16.43489 10.61999 88.72763 38.1292 -23.06914 -0 0 10.66673 -7.037014 11.66928 4.990194 6.667293 -21.67317 -1.542885 -91.8952 28.27887 19.9043 0 0 -25.0573 7.014515 13.92765 8.748096
3.046354 102.679 35.95123 -3.357981 5.213177 4.150264 10.09969 -33.86408 6.581174 -0 18.14741 -0 -7.759754 -3.985303 -0.3117142 -4.634577 14.28325 -16.15095 -0 22.69515 -0 -2.739419 -16.9848 12.32167 0.4302037 -0.7470868 2.99999 2.947879 8.707908 -8.064932 1.052354 19.59497 8.595834 4.202848 -26.37656 10.28882 6.115387 -16.14516 10.81139 88.58311 38.08593 -23.06357 -0 0 10.4125 -7.658644 11.79917 5.401751 6.690944 -21.82032 -1.543779 -91.33481 26.93849 19.3191 0 0 -24.84865 7.52485 13.21408 7.60655
3.61045 102.9252 41.43802 -3.279958 5.007913 4.420807 9.711263 -32.44149 5.519938 -0 17.13522 -0 -7.93769 -3.676025 0.1676022 -4.628101 13.52444 -15.08837 -0 26.5929 -0 -3.442411 -15.60348 10.98057 0.5509236 -0.809514 3.038636 2.973704 8.905467 -8.158069 0.7090666 19.47823 8.704763 4.377659 -26.10119 9.771161 6.208319 -15.91694 11.03472 88.48046 37.86976 -23.07927 -0 0 10.21841 -8.465853 11.84244 5.773285 6.717538 -22.05388 -1.632182 -90.72774 25.36717 18.69626 0 0 -24.56619 8.147628 12.49942 6.191648
4.220385 103.3098 47.21012 -3.060802 4.519932 4.573158 9.170721 -30.35452 4.321622 -0 16.24433 -0 -8.214212 -3.340099 0.6326144 -4.629727 12.43402 -13.84988 -0 31.1334 -0 -4.006613 -14.03484 9.807497 0.6460124 -0.9296463 3.179372 2.919778 9.227316 -8.251767 0.3454526 19.43025 8.755339 4.577362 -25.70045 9.11731 6.167893 -15.78884 11.28798 88.48611 37.39362 -23.14113 -0 0 10.08292 -9.50559 11.77153 6.061609 6.743931 -22.41482 -1.853864 -90.07431 23.56235 18.04024 0 0 -24.23706 8.899513 11.83256 4.474266
4.847448 103.8536 53.22677 -2.685032 3.651282 4.585721 8.52715 -27.56269 3.02625 -0 15.46542 -0 -8.649022 -2.908598 1.028912 -4.604449 10.95674 -12.424 -0 36.30913 -0 -4.345348 -12.35249 8.938244 0.717369 -1.098062 3.437728 2.762824 9.711423 -8.340203 -0.00369277 19.4889 8.705894 4.7861 -25.16063 8.332699 5.890388 -15.82064 11.5646 88.69269 36.53349 -23.2659 -0 0 10.00205 -10.82218 11.55884 6.211825 6.756259 -22.94378 -2.267293 -89.38641 21.54254 17.37264 0 0 -23.88235 9.797502 11.29496 2.437808
5.447433 104.5671 59.42132 -2.156515 2.290376 4.442595 7.86382 -24.08246 1.702334 -0 14.7647 -0 -9.311208 -2.309264 1.271445 -4.495154 9.061057 -10.82786 -0 41.97873 -0 -4.339229 -10.68017 8.553324 0.7694917 -1.292832 3.81645 2.48717 10.39467 -8.412479 -0.2808507 19.70048 8.494354 4.964004 -24.48082 7.447867 5.237282 -16.09722 11.8505 89.21202 35.1279 -23.44014 -0 0 9.973165 -12.44094 11.18871 6.16866 6.721224 -23.66447 -2.939446 -88.69686 19.35811 16.74794 0 0 -23.49486 10.85173 11.00268 0.09718436
5.963761 105.4402 65.69753 -1.514409 0.3407635 4.135186 7.294265 -20.01047 0.4461793 -0 14.07924 -0 -10.2543 -1.50087 1.249122 -4.225536 6.767351 -9.127438 -0 47.77755 -0 -3.850952 -9.177481 8.851744 0.8104366 -1.47696 4.294549 2.096938 11.29699 -8.450666 -0.4063427 20.1076 8.040126 5.037235 -23.6825 6.528531 4.057 -16.72586 12.1194 90.14791 33.00174 -23.58502 -0 0 10.01085 -14.33737 10.67727 5.903297 6.578188 -24.55204 -3.928731 -88.07376 17.10706 16.27917 0 0 -22.9999 12.04538 11.09554 -2.464649
6.339995 106.4309 71.93629 -0.8447178 -2.220313 3.65749 6.939093 -15.51268 -0.6263117 -0 13.33148 -0 -11.46629 -0.531849 0.853669 -3.720431 4.166194 -7.450241 -0 53.05656 -0 -2.773624 -7.981086 9.97841 0.8508483 -1.604134 4.822466 1.628834 12.39674 -8.430822 -0.2961987 20.7211 7.262278 4.901098 -22.81751 5.672961 2.24684 -17.81571 12.32994 91.54463 30.03845 -23.52852 -0 0 10.17887 -16.39941 10.09244 5.456087 6.244794 -25.49477 -5.248143 -87.62906 14.93998 16.15994 0 0 -22.21516 13.30325 11.69457 -5.05685
6.542276 107.4627 78.01928 -0.2742766 -5.256456 2.99558 6.878072 -10.77256 -1.397056 -0 12.47491 -0 -12.80918 0.4022501 0.03953544 -2.945388 1.397892 -5.971428 -0 56.93046 -0 -1.126116 -7.116439 11.90145 0.8993613 -1.636662 5.335403 1.154983 13.60501 -8.330343 0.09429312 21.48104 6.125512 4.454219 -21.97021 4.986241 -0.1432652 -19.42818 12.43168 93.32319 26.31454 -23.03276 -0 0 10.62371 -18.40689 9.555612 4.9728 5.654005 -26.27937 -6.808503 -87.50438 13.04399 16.65207 0 0 -20.86697 14.45783 12.82302 -7.359784
6.58191 108.439 83.86638 0.06611264 -8.402746 2.126283 7.089448 -5.942081 -1.778462 -0 11.55151 -0 -14.00197 0.965771 -1.102193 -1.944857 -1.423543 -4.85313 -0 58.51475 -0 0.8394844 -6.458669 14.295 0.953646 -1.568907 5.787952 0.764225 14.7599 -8.14157 0.7125492 22.23629 4.707534 3.667472 -21.2476 4.534597 -2.814913 -21.50404 12.39177 95.23031 22.24287 -21.91424 -0 0 11.56104 -20.07278 9.207534 4.687028 4.820443 -26.64865 -8.372025 -87.81612 11.59649 17.99571 0 0 -18.73358 15.25053 14.31987 -8.96898
6.519747 109.2715 89.46605 0.1056258 -11.09725 1.047505 7.423325 -1.171637 -1.754816 -0 10.70451 -0 -14.70707 0.8039202 -2.309852 -0.8400875 -4.292776 -4.153308 -0 57.29026 -0 2.638604 -5.825664 16.56217 0.9913434 -1.435882 6.184676 0.5251275 15.66163 -7.882106 1.384705 22.78646 3.238328 2.645215 -20.75174 4.312732 -5.235298 -23.81392 12.23779 96.82956 18.57795 -20.20013 -0 0 13.16528 -21.16366 9.150525 4.821291 3.879743 -26.43697 -9.58319 -88.57358 10.70886 20.24814 0 0 -15.88505 15.41681 15.82344 -9.532272
6.443382 109.9014 94.87423 -0.1138771 -12.76879 -0.1702795 7.661645 3.302964 -1.401396 -0 10.11009 -0 -14.69627 -0.2793919 -3.221133 0.2290362 -7.303296 -3.777491 -0 53.34401 -0 3.763773 -5.132732 18.08693 0.9730522 -1.293836 6.567295 0.4558375 16.14227 -7.588989 1.87929 22.98355 2.040804 1.607359 -20.53722 4.260671 -6.823873 -25.99916 12.07369 97.58923 16.16944 -18.1624 -0 0 15.407 -21.62613 9.410518 5.467148 3.032776 -25.68544 -10.11293 -89.63248 10.40385 23.16679 0 0 -12.80212 14.84184 16.89384 -8.928292
